<svg width="20" height="20" viewBox="0 0 20 20" fill="none" xmlns="http://www.w3.org/2000/svg">
<path fill-rule="evenodd" clip-rule="evenodd" d="M6.14621 4.0493C7.21258 3.01643 8.49706 2.5 9.99967 2.5C11.5023 2.5 12.7807 3.01056 13.835 4.03169C14.8892 5.05282 15.4163 6.29107 15.4163 7.74648C15.4163 8.47418 15.2285 9.30751 14.8529 10.2465C14.4772 11.1855 14.0228 12.0657 13.4896 12.8873C12.9564 13.7089 12.4293 14.4777 11.9082 15.1937C11.3872 15.9096 10.9449 16.4789 10.5813 16.9014L9.99967 17.5C9.85426 17.3357 9.66038 17.1185 9.41802 16.8486C9.17566 16.5786 8.73942 16.0387 8.10929 15.2289C7.47916 14.419 6.92781 13.6326 6.45521 12.8697C5.98261 12.1068 5.55244 11.2441 5.16466 10.2817C4.77689 9.31924 4.58301 8.47418 4.58301 7.74648C4.58301 6.29107 5.10407 5.05869 6.14621 4.0493Z" stroke="white" stroke-width="1.2" stroke-linecap="round" stroke-linejoin="round"/>
<path d="M10.833 7.91667C10.833 8.3769 10.4599 8.75 9.99967 8.75C9.53944 8.75 9.16634 8.3769 9.16634 7.91667C9.16634 7.45643 9.53944 7.08333 9.99967 7.08333C10.4599 7.08333 10.833 7.45643 10.833 7.91667Z" stroke="white" stroke-width="1.2" stroke-linecap="round" stroke-linejoin="round"/>
</svg>
