<svg width="164" height="161" viewBox="0 0 164 161" fill="none" xmlns="http://www.w3.org/2000/svg">
<g clip-path="url(#clip0_903_43374)">
<path d="M5.94666 134.613L6.00634 135.27L4.11911 139.382H0.807129L8.10243 124.141L15.3977 139.382H12.0708L10.2209 135.396L10.2582 134.657L8.10243 129.657L5.94666 134.613ZM4.69348 133.792H11.6009L11.9515 136.113H4.34289L4.69348 133.792Z" fill="white"/>
<path d="M19.9854 124.992V139.39H16.9644V124.992H19.9854ZM28.5936 124.992L22.6335 131.74L28.8994 139.39H25.3264L19.1201 131.822L25.1026 124.992H28.5936Z" fill="white"/>
<path d="M32.4646 134.664C32.8973 135.373 33.4642 135.911 34.1579 136.291C34.8517 136.672 35.62 136.859 36.4405 136.859C37.1268 136.859 37.7385 136.769 38.2681 136.59C38.8051 136.411 39.2825 136.172 39.7152 135.873C40.1478 135.575 40.5208 135.246 40.8341 134.888V138.202C40.2448 138.665 39.6033 139.031 38.9096 139.292C38.2159 139.553 37.3431 139.68 36.2913 139.68C35.1948 139.68 34.1803 139.501 33.2404 139.143C32.3005 138.784 31.4875 138.269 30.7937 137.597C30.1 136.926 29.5704 136.135 29.19 135.224C28.8095 134.313 28.623 133.298 28.623 132.193C28.623 131.081 28.8095 130.074 29.19 129.163C29.5629 128.252 30.1 127.461 30.7937 126.79C31.4875 126.118 32.3005 125.603 33.2404 125.244C34.1803 124.886 35.1948 124.707 36.2913 124.707C37.3431 124.707 38.2159 124.834 38.9096 125.095C39.6033 125.356 40.2448 125.722 40.8341 126.185V129.499C40.5208 129.141 40.1478 128.812 39.7152 128.514C39.2825 128.215 38.7977 127.976 38.2681 127.797C37.731 127.618 37.1268 127.528 36.4405 127.528C35.62 127.528 34.8591 127.715 34.1579 128.096C33.4567 128.476 32.8973 129.014 32.4646 129.708C32.032 130.41 31.8157 131.238 31.8157 132.193C31.8231 133.134 32.0395 133.955 32.4646 134.664Z" fill="white"/>
<path d="M43.7583 140.104L43.8627 136.282L56.8347 124.273L56.7302 128.094L43.7583 140.104ZM46.6003 137.036L43.7658 140.097V124.982H46.6003V137.036ZM56.8347 139.38H54.0001V127.408L56.8347 124.258V139.38Z" fill="white"/>
<path d="M59.7067 129.17C60.0872 128.26 60.6242 127.468 61.3105 126.797C61.9968 126.125 62.8024 125.61 63.7274 125.244C64.6523 124.878 65.6519 124.699 66.741 124.699C67.8375 124.699 68.8445 124.878 69.762 125.244C70.6795 125.61 71.4852 126.125 72.1789 126.797C72.8726 127.468 73.4022 128.26 73.7827 129.17C74.1556 130.081 74.3496 131.088 74.3496 132.186C74.3496 133.268 74.1631 134.276 73.7827 135.201C73.4097 136.127 72.8801 136.933 72.2013 137.62C71.5225 138.306 70.7243 138.836 69.7993 139.209C68.8744 139.583 67.8599 139.777 66.7484 139.777C65.637 139.777 64.6225 139.59 63.6975 139.209C62.7726 138.836 61.9669 138.299 61.2807 137.62C60.5944 136.933 60.0648 136.127 59.6993 135.201C59.3263 134.276 59.1473 133.268 59.1473 132.186C59.1324 131.088 59.3263 130.081 59.7067 129.17ZM62.8099 134.634C63.1903 135.35 63.7199 135.91 64.3913 136.321C65.0626 136.731 65.8458 136.94 66.7335 136.94C67.6212 136.94 68.4044 136.731 69.0758 136.321C69.7471 135.91 70.2693 135.35 70.6497 134.634C71.0301 133.917 71.2166 133.104 71.2166 132.186C71.2166 131.268 71.0301 130.454 70.6646 129.737C70.2991 129.021 69.7769 128.461 69.1056 128.051C68.4343 127.64 67.6436 127.431 66.741 127.431C65.8533 127.431 65.0701 127.64 64.3987 128.051C63.7274 128.461 63.1977 129.021 62.8173 129.737C62.4369 130.454 62.2429 131.268 62.2429 132.186C62.2355 133.104 62.4294 133.917 62.8099 134.634Z" fill="white"/>
<path d="M79.5635 124.992V139.39H76.6245V124.992H79.5635ZM77.5868 130.396H88.1493V133.046H77.5868V130.396ZM89.2235 124.992V139.39H86.2845V124.992H89.2235Z" fill="white"/>
<path d="M95.9222 134.613L95.9819 135.27L94.0947 139.382H90.7827L98.078 124.141L105.373 139.382H102.046L100.196 135.396L100.234 134.657L98.078 129.657L95.9222 134.613ZM94.6691 133.792H101.576L101.927 136.113H94.3259L94.6691 133.792Z" fill="white"/>
<path d="M109.132 130.746H111.452C111.878 130.746 112.25 130.679 112.564 130.537C112.877 130.403 113.123 130.201 113.295 129.94C113.466 129.679 113.548 129.373 113.548 129.014C113.548 128.469 113.362 128.051 112.981 127.76C112.601 127.469 112.094 127.327 111.452 127.327H109.871V137.031H111.758C112.25 137.031 112.698 136.956 113.093 136.814C113.489 136.672 113.802 136.441 114.026 136.128C114.25 135.814 114.361 135.411 114.361 134.911C114.361 134.553 114.294 134.247 114.168 133.993C114.041 133.739 113.854 133.53 113.616 133.358C113.377 133.187 113.101 133.06 112.78 132.985C112.467 132.911 112.124 132.873 111.751 132.873H109.118V131.268H112.012C112.713 131.268 113.377 131.343 114.018 131.492C114.652 131.642 115.227 131.88 115.734 132.201C116.241 132.522 116.644 132.94 116.935 133.448C117.226 133.955 117.375 134.568 117.375 135.277C117.375 136.225 117.151 136.993 116.704 137.598C116.256 138.203 115.63 138.65 114.824 138.934C114.018 139.218 113.078 139.367 112.012 139.367H106.917V124.969H111.706C112.668 124.969 113.511 125.103 114.235 125.372C114.958 125.641 115.533 126.044 115.943 126.574C116.353 127.111 116.562 127.79 116.562 128.611C116.562 129.335 116.353 129.962 115.943 130.485C115.533 131.007 114.966 131.403 114.235 131.664C113.504 131.925 112.668 132.067 111.706 132.067H109.118V130.746H109.132Z" fill="white"/>
<path d="M117.853 124.992H128.542V127.642H124.656V139.383H121.717V127.642H117.853V124.992Z" fill="white"/>
<path d="M136.262 126.082L142.573 124.746V139.391H139.716V127.836L136.262 128.739V126.082Z" fill="white"/>
<path d="M146.944 136.985C147.265 136.664 147.668 136.5 148.145 136.5C148.638 136.5 149.04 136.664 149.361 136.985C149.682 137.306 149.831 137.702 149.831 138.164C149.831 138.605 149.674 138.986 149.361 139.314C149.048 139.642 148.645 139.807 148.145 139.807C147.668 139.807 147.265 139.642 146.944 139.314C146.624 138.986 146.459 138.605 146.459 138.164C146.459 137.702 146.616 137.306 146.944 136.985Z" fill="white"/>
<path d="M158.32 132.552C158.693 132.157 159.006 131.783 159.267 131.44C159.529 131.097 159.73 130.753 159.864 130.41C159.998 130.067 160.073 129.708 160.073 129.343C160.073 129.081 160.028 128.828 159.931 128.581C159.834 128.335 159.693 128.118 159.499 127.924C159.305 127.73 159.073 127.581 158.797 127.462C158.522 127.342 158.208 127.29 157.85 127.29C157.343 127.29 156.91 127.409 156.545 127.648C156.179 127.887 155.903 128.23 155.702 128.663C155.5 129.104 155.403 129.611 155.403 130.186H152.524C152.524 129.156 152.733 128.23 153.143 127.409C153.554 126.588 154.158 125.931 154.963 125.446C155.762 124.961 156.746 124.715 157.91 124.715C158.775 124.715 159.529 124.849 160.177 125.118C160.826 125.387 161.371 125.737 161.804 126.163C162.236 126.596 162.557 127.073 162.766 127.596C162.975 128.118 163.087 128.641 163.087 129.156C163.087 129.925 162.9 130.641 162.535 131.313C162.162 131.985 161.677 132.597 161.073 133.142L157.335 136.68H163.355V139.374H151.786L158.32 132.552Z" fill="white"/>
<path d="M19.6716 151.419C19.8432 150.739 20.1415 150.157 20.5742 149.679C21.0068 149.202 21.5961 148.836 22.3495 148.582C22.991 148.366 23.4684 148.104 23.7892 147.798C24.1099 147.492 24.2964 147.164 24.3636 146.828H25.4825C25.4377 147.246 25.2811 147.627 25.0274 147.97C24.7738 148.313 24.4382 148.612 24.0279 148.873C23.6176 149.127 23.1551 149.344 22.633 149.508C22.0437 149.694 21.5887 149.978 21.2679 150.359C20.9471 150.739 20.7159 151.165 20.5966 151.642C20.4697 152.12 20.4101 152.598 20.4101 153.068V154.531L19.418 153.777C19.418 152.881 19.5 152.098 19.6716 151.419ZM22.7896 151.217C23.4311 151.217 24.0055 151.366 24.5127 151.657C25.02 151.948 25.4228 152.352 25.7212 152.859C26.0196 153.367 26.1687 153.956 26.1687 154.621C26.1687 155.27 26.0196 155.86 25.7212 156.375C25.4228 156.89 25.02 157.293 24.5127 157.584C24.0055 157.875 23.4311 158.024 22.7896 158.024C22.1556 158.024 21.5812 157.867 21.074 157.547C20.5667 157.226 20.1639 156.755 19.8655 156.121C19.5672 155.486 19.418 154.703 19.418 153.77L20.5518 154.621C20.5518 155.076 20.6488 155.479 20.8502 155.83C21.0516 156.181 21.3127 156.457 21.6483 156.658C21.984 156.86 22.3644 156.964 22.7896 156.964C23.2148 156.964 23.5952 156.86 23.9309 156.658C24.2666 156.457 24.5277 156.181 24.7216 155.83C24.9156 155.479 25.0125 155.076 25.0125 154.621C25.0125 154.165 24.9156 153.762 24.7216 153.411C24.5277 153.061 24.2666 152.777 23.9309 152.583C23.5952 152.381 23.2148 152.284 22.7896 152.284V151.217ZM20.2385 153.195C20.3728 152.777 20.5593 152.419 20.8054 152.128C21.0516 151.837 21.3425 151.613 21.6782 151.456C22.0138 151.299 22.3868 151.224 22.7896 151.224V152.292C22.5435 152.292 22.2898 152.344 22.0213 152.449C21.7528 152.553 21.5141 152.702 21.2903 152.904C21.0665 153.105 20.8875 153.344 20.7532 153.635C20.6189 153.926 20.5443 154.255 20.5443 154.636H20.0371C20.0371 154.091 20.1042 153.62 20.2385 153.195Z" fill="white"/>
<path d="M28.4143 156.548C28.5411 156.705 28.7053 156.824 28.9141 156.906C29.123 156.988 29.3542 157.026 29.6078 157.026C29.9883 157.026 30.3239 156.966 30.6149 156.854C30.9058 156.742 31.137 156.563 31.3011 156.317C31.4652 156.07 31.5473 155.742 31.5473 155.339L31.7711 156.048C31.7711 156.466 31.6592 156.824 31.4354 157.115C31.2116 157.414 30.9207 157.638 30.5477 157.795C30.1822 157.951 29.7719 158.026 29.3169 158.026C28.9141 158.026 28.5411 157.951 28.198 157.802C27.8549 157.653 27.5863 157.429 27.3849 157.13C27.1835 156.832 27.0791 156.459 27.0791 156.018C27.0791 155.555 27.191 155.16 27.4222 154.839C27.646 154.518 27.9668 154.272 28.3845 154.092C28.8022 153.921 29.2945 153.831 29.8615 153.831C30.2792 153.831 30.6372 153.883 30.9282 153.995C31.2191 154.107 31.4652 154.227 31.6443 154.361C31.8233 154.495 31.9501 154.607 32.0098 154.697V155.361C31.689 155.137 31.3608 154.966 31.0326 154.861C30.7044 154.749 30.3314 154.697 29.9137 154.697C29.5332 154.697 29.22 154.749 28.9738 154.854C28.7202 154.958 28.5337 155.108 28.4143 155.294C28.295 155.481 28.2278 155.712 28.2278 155.973C28.2278 156.197 28.295 156.391 28.4143 156.548ZM27.6759 152.025C27.922 151.846 28.2502 151.667 28.668 151.487C29.0857 151.308 29.5855 151.219 30.1673 151.219C30.6671 151.219 31.1072 151.293 31.4802 151.45C31.8531 151.607 32.144 151.831 32.3604 152.122C32.5767 152.413 32.6811 152.771 32.6811 153.197V157.877H31.5473V153.197C31.5473 152.868 31.4056 152.615 31.1296 152.45C30.8536 152.286 30.5328 152.204 30.1748 152.204C29.8615 152.204 29.578 152.241 29.3244 152.323C29.0708 152.406 28.847 152.495 28.668 152.607C28.4815 152.719 28.3397 152.809 28.2353 152.883L27.6759 152.025Z" fill="white"/>
<path d="M34.5234 161.004V151.361H35.6573V161.004H34.5234ZM40.6775 156.436C40.3865 156.944 39.9912 157.339 39.5063 157.615C39.0215 157.892 38.4769 158.026 37.8802 158.026C37.3431 158.026 36.8657 157.892 36.4554 157.615C36.0452 157.339 35.7244 156.951 35.4932 156.436C35.2619 155.921 35.15 155.324 35.15 154.622C35.15 153.913 35.2619 153.309 35.4932 152.801C35.7244 152.294 36.0452 151.905 36.4554 151.629C36.8657 151.353 37.3431 151.219 37.8802 151.219C38.4769 151.219 39.014 151.353 39.5063 151.629C39.9912 151.905 40.3791 152.294 40.6775 152.801C40.9684 153.309 41.1176 153.913 41.1176 154.622C41.1101 155.324 40.9684 155.929 40.6775 156.436ZM39.663 153.346C39.4616 152.995 39.193 152.734 38.8574 152.555C38.5217 152.376 38.1487 152.286 37.7459 152.286C37.4177 152.286 37.0895 152.376 36.7687 152.555C36.448 152.734 36.1794 153.003 35.978 153.346C35.7692 153.697 35.6647 154.122 35.6647 154.622C35.6647 155.122 35.7692 155.548 35.978 155.899C36.1869 156.25 36.448 156.511 36.7687 156.69C37.0895 156.869 37.4177 156.959 37.7459 156.959C38.1487 156.959 38.5217 156.869 38.8574 156.69C39.193 156.511 39.4616 156.242 39.663 155.899C39.8644 155.548 39.9688 155.122 39.9688 154.622C39.9688 154.122 39.8644 153.697 39.663 153.346Z" fill="white"/>
<path d="M42.5501 152.865C42.8485 152.357 43.2513 151.954 43.7585 151.663C44.2658 151.372 44.8401 151.223 45.4742 151.223C46.1157 151.223 46.6901 151.372 47.1973 151.663C47.7046 151.954 48.1074 152.357 48.3983 152.865C48.6967 153.372 48.8458 153.962 48.8458 154.626C48.8458 155.276 48.6967 155.865 48.3983 156.38C48.0999 156.895 47.6971 157.298 47.1973 157.59C46.6901 157.881 46.1157 158.03 45.4742 158.03C44.8401 158.03 44.2658 157.881 43.7585 157.59C43.2513 157.298 42.841 156.895 42.5501 156.38C42.2517 155.865 42.1025 155.283 42.1025 154.626C42.1025 153.962 42.2517 153.372 42.5501 152.865ZM43.5422 155.828C43.7362 156.179 43.9972 156.455 44.3329 156.656C44.6686 156.858 45.049 156.963 45.4742 156.963C45.8994 156.963 46.2798 156.858 46.6155 156.656C46.9512 156.455 47.2122 156.179 47.4062 155.828C47.6001 155.477 47.6971 155.074 47.6971 154.619C47.6971 154.163 47.6001 153.76 47.4062 153.41C47.2122 153.059 46.9512 152.775 46.6155 152.581C46.2798 152.387 45.8994 152.283 45.4742 152.283C45.049 152.283 44.6686 152.38 44.3329 152.581C43.9972 152.783 43.7362 153.059 43.5422 153.41C43.3483 153.76 43.2513 154.171 43.2513 154.619C43.2513 155.067 43.3483 155.477 43.5422 155.828Z" fill="white"/>
<path d="M51.1207 150.867L51.7622 152.711L50.6955 157.891H49.4199L51.1207 150.867ZM50.9789 153.136L51.1207 150.867L54.0522 156.906L53.627 158.324L50.9789 153.136ZM56.1782 150.867L56.3199 153.136L53.627 158.324L53.2018 156.906L56.1782 150.867ZM55.5441 152.711L56.1856 150.867L57.8864 157.883H56.6033L55.5441 152.711Z" fill="white"/>
<path d="M59.1695 153.943H63.5183C63.481 153.599 63.3915 153.301 63.2423 153.04C63.0931 152.778 62.8917 152.577 62.6307 152.428C62.3696 152.278 62.0488 152.211 61.6759 152.211C61.3029 152.211 60.9523 152.293 60.639 152.45C60.3257 152.607 60.0795 152.838 59.8931 153.137C59.7066 153.435 59.6171 153.786 59.6171 154.197L59.5872 154.622C59.5872 155.122 59.6693 155.548 59.8408 155.898C60.0124 156.249 60.2511 156.51 60.5644 156.69C60.8777 156.869 61.2432 156.958 61.6684 156.958C61.9892 156.958 62.2726 156.906 62.5262 156.809C62.7799 156.712 63.0036 156.57 63.1976 156.398C63.3915 156.227 63.5631 156.018 63.7048 155.779L64.6298 156.361C64.4135 156.69 64.1748 156.981 63.9062 157.234C63.6451 157.488 63.3169 157.682 62.944 157.817C62.5635 157.951 62.0936 158.026 61.5267 158.026C60.9374 158.026 60.4152 157.876 59.9453 157.585C59.4753 157.294 59.1098 156.891 58.8413 156.376C58.5727 155.861 58.4385 155.279 58.4385 154.622C58.4385 154.503 58.4459 154.383 58.4534 154.264C58.4609 154.152 58.4758 154.04 58.4981 153.92C58.5951 153.383 58.7816 152.905 59.0651 152.502C59.3485 152.099 59.714 151.778 60.1616 151.554C60.6092 151.33 61.1164 151.211 61.6684 151.211C62.2801 151.211 62.8172 151.345 63.2871 151.621C63.7496 151.898 64.1076 152.278 64.3612 152.778C64.6149 153.278 64.7417 153.868 64.7417 154.555C64.7417 154.615 64.7417 154.667 64.7417 154.727C64.7417 154.786 64.7342 154.838 64.7268 154.898H59.1546V153.943H59.1695Z" fill="white"/>
<path d="M69.1499 151.359V152.427H65.3232V151.359H69.1499ZM67.7998 151.643V157.883H66.6659V151.643H67.7998Z" fill="white"/>
<path d="M70.2095 161.004V151.361H71.3433V161.004H70.2095ZM76.3635 156.436C76.0726 156.944 75.6772 157.339 75.1924 157.615C74.7075 157.892 74.163 158.026 73.5662 158.026C73.0291 158.026 72.5517 157.892 72.1415 157.615C71.7312 157.339 71.4104 156.951 71.1792 156.436C70.948 155.921 70.8361 155.324 70.8361 154.622C70.8361 153.913 70.948 153.309 71.1792 152.801C71.4104 152.294 71.7312 151.905 72.1415 151.629C72.5517 151.353 73.0291 151.219 73.5662 151.219C74.163 151.219 74.7 151.353 75.1924 151.629C75.6772 151.905 76.0651 152.294 76.3635 152.801C76.6544 153.309 76.8036 153.913 76.8036 154.622C76.8036 155.324 76.6544 155.929 76.3635 156.436ZM75.349 153.346C75.1476 152.995 74.8791 152.734 74.5434 152.555C74.2077 152.376 73.8347 152.286 73.4319 152.286C73.1037 152.286 72.7755 152.376 72.4548 152.555C72.134 152.734 71.8655 153.003 71.6641 153.346C71.4552 153.697 71.3508 154.122 71.3508 154.622C71.3508 155.122 71.4552 155.548 71.6641 155.899C71.8729 156.25 72.134 156.511 72.4548 156.69C72.7755 156.869 73.1037 156.959 73.4319 156.959C73.8347 156.959 74.2077 156.869 74.5434 156.69C74.8791 156.511 75.1476 156.242 75.349 155.899C75.5504 155.548 75.6548 155.122 75.6548 154.622C75.6548 154.122 75.5504 153.697 75.349 153.346Z" fill="white"/>
<path d="M89.0593 156.823V159.159H88.0672V157.883H82.6069V151.359H83.7408V156.823H86.7842V151.359H87.918V156.823H89.0593Z" fill="white"/>
<path d="M90.7746 153.943H95.1235C95.0862 153.599 94.9966 153.301 94.8475 153.04C94.6983 152.778 94.4969 152.577 94.2358 152.428C93.9747 152.278 93.6539 152.211 93.281 152.211C92.908 152.211 92.5574 152.293 92.2441 152.45C91.9308 152.607 91.6847 152.838 91.4982 153.137C91.3117 153.435 91.2222 153.786 91.2222 154.197L91.1923 154.622C91.1923 155.122 91.2744 155.548 91.446 155.898C91.6175 156.249 91.8562 156.51 92.1695 156.69C92.4828 156.869 92.8483 156.958 93.2735 156.958C93.5943 156.958 93.8777 156.906 94.1313 156.809C94.385 156.712 94.6088 156.57 94.8027 156.398C95.0041 156.227 95.1682 156.018 95.3099 155.779L96.2274 156.361C96.0111 156.69 95.7724 156.981 95.5039 157.234C95.2428 157.488 94.9146 157.682 94.5416 157.817C94.1612 157.951 93.6912 158.026 93.1243 158.026C92.535 158.026 92.0129 157.876 91.5429 157.585C91.073 157.294 90.7075 156.891 90.4389 156.376C90.1704 155.861 90.0361 155.279 90.0361 154.622C90.0361 154.503 90.0436 154.383 90.051 154.264C90.0585 154.152 90.0734 154.04 90.0958 153.92C90.1928 153.383 90.3793 152.905 90.6627 152.502C90.9462 152.099 91.3117 151.778 91.7593 151.554C92.2068 151.33 92.7141 151.211 93.2661 151.211C93.8777 151.211 94.4148 151.345 94.8848 151.621C95.3472 151.898 95.7053 152.278 95.9589 152.778C96.2125 153.278 96.3393 153.868 96.3393 154.555C96.3393 154.615 96.3393 154.667 96.3393 154.727C96.3393 154.786 96.3319 154.838 96.3244 154.898H90.7522V153.943H90.7746Z" fill="white"/>
<path d="M99.0547 151.359V157.883H97.9209V151.359H99.0547ZM98.5848 153.912H103.404V154.972H98.5848V153.912ZM103.799 151.359V157.883H102.665V151.359H103.799Z" fill="white"/>
<path d="M107.059 151.359V157.883H105.925V151.359H107.059ZM106.589 153.912H111.407V154.972H106.589V153.912ZM111.803 151.359V157.883H110.669V151.359H111.803Z" fill="white"/>
<path d="M113.809 152.865C114.108 152.357 114.511 151.954 115.018 151.663C115.525 151.372 116.099 151.223 116.733 151.223C117.375 151.223 117.949 151.372 118.457 151.663C118.964 151.954 119.367 152.357 119.665 152.865C119.963 153.372 120.113 153.962 120.113 154.626C120.113 155.276 119.963 155.865 119.665 156.38C119.367 156.895 118.964 157.298 118.457 157.59C117.949 157.881 117.375 158.03 116.733 158.03C116.099 158.03 115.533 157.881 115.018 157.59C114.511 157.298 114.1 156.895 113.809 156.38C113.511 155.865 113.362 155.283 113.362 154.626C113.369 153.962 113.511 153.372 113.809 152.865ZM114.801 155.828C114.995 156.179 115.257 156.455 115.592 156.656C115.928 156.858 116.308 156.963 116.733 156.963C117.159 156.963 117.539 156.858 117.875 156.656C118.21 156.455 118.472 156.179 118.665 155.828C118.859 155.477 118.956 155.074 118.956 154.619C118.956 154.163 118.859 153.76 118.665 153.41C118.472 153.059 118.21 152.775 117.875 152.581C117.539 152.38 117.159 152.283 116.733 152.283C116.308 152.283 115.928 152.38 115.592 152.581C115.257 152.783 114.995 153.059 114.801 153.41C114.608 153.768 114.511 154.171 114.511 154.619C114.511 155.067 114.608 155.477 114.801 155.828Z" fill="white"/>
<path d="M122.47 155.832C122.664 156.182 122.925 156.459 123.261 156.66C123.596 156.862 123.977 156.966 124.402 156.966C124.753 156.966 125.081 156.914 125.387 156.802C125.692 156.69 125.961 156.548 126.185 156.361C126.409 156.175 126.573 155.981 126.67 155.772V157.19C126.446 157.451 126.118 157.66 125.7 157.81C125.282 157.959 124.849 158.026 124.402 158.026C123.768 158.026 123.194 157.877 122.686 157.586C122.179 157.295 121.769 156.891 121.478 156.376C121.179 155.861 121.03 155.279 121.03 154.622C121.03 153.958 121.179 153.376 121.478 152.861C121.776 152.353 122.179 151.95 122.686 151.659C123.194 151.368 123.768 151.219 124.402 151.219C124.849 151.219 125.275 151.293 125.7 151.435C126.118 151.584 126.446 151.786 126.67 152.055V153.473C126.573 153.256 126.416 153.055 126.185 152.876C125.961 152.697 125.692 152.555 125.387 152.443C125.081 152.331 124.753 152.279 124.402 152.279C123.977 152.279 123.596 152.376 123.261 152.577C122.925 152.779 122.664 153.055 122.47 153.406C122.276 153.757 122.179 154.167 122.179 154.615C122.179 155.063 122.276 155.481 122.47 155.832Z" fill="white"/>
<path d="M131.279 151.359V152.427H127.453V151.359H131.279ZM129.937 151.643V157.883H128.803V151.643H129.937Z" fill="white"/>
<path d="M132.354 153.943H136.703C136.665 153.599 136.576 153.301 136.427 153.04C136.277 152.778 136.076 152.577 135.815 152.428C135.554 152.278 135.233 152.211 134.86 152.211C134.487 152.211 134.137 152.293 133.823 152.45C133.51 152.607 133.264 152.838 133.077 153.137C132.891 153.435 132.801 153.786 132.801 154.197L132.771 154.622C132.771 155.122 132.853 155.548 133.025 155.898C133.197 156.249 133.435 156.51 133.749 156.69C134.062 156.869 134.427 156.958 134.853 156.958C135.173 156.958 135.457 156.906 135.71 156.809C135.964 156.712 136.188 156.57 136.382 156.398C136.583 156.227 136.747 156.018 136.889 155.779L137.807 156.361C137.59 156.69 137.352 156.981 137.083 157.234C136.822 157.488 136.494 157.682 136.121 157.817C135.74 157.951 135.27 158.026 134.703 158.026C134.114 158.026 133.592 157.876 133.122 157.585C132.652 157.294 132.287 156.891 132.018 156.376C131.749 155.861 131.615 155.279 131.615 154.622C131.615 154.503 131.623 154.383 131.63 154.264C131.638 154.152 131.653 154.04 131.675 153.92C131.772 153.383 131.958 152.905 132.242 152.502C132.525 152.099 132.891 151.778 133.338 151.554C133.786 151.33 134.293 151.211 134.845 151.211C135.457 151.211 135.994 151.345 136.464 151.621C136.926 151.898 137.284 152.278 137.538 152.778C137.792 153.278 137.918 153.868 137.918 154.555C137.918 154.615 137.918 154.667 137.918 154.727C137.918 154.786 137.911 154.838 137.904 154.898H132.331V153.943H132.354Z" fill="white"/>
<path d="M139.575 158.384L139.649 156.749L145.035 150.868L144.968 152.495L139.575 158.384ZM140.709 156.824L139.575 158.384V151.36H140.709V156.824ZM141.104 148.031C141.104 148.158 141.134 148.3 141.201 148.464C141.268 148.628 141.387 148.778 141.566 148.905C141.745 149.031 141.999 149.099 142.335 149.099C142.67 149.099 142.924 149.031 143.103 148.905C143.282 148.778 143.409 148.628 143.469 148.464C143.536 148.3 143.565 148.158 143.565 148.031H144.573C144.573 148.352 144.49 148.666 144.326 148.972C144.162 149.278 143.916 149.532 143.58 149.726C143.252 149.92 142.834 150.017 142.335 150.017C141.842 150.017 141.432 149.92 141.096 149.726C140.761 149.532 140.507 149.278 140.343 148.972C140.179 148.666 140.097 148.352 140.097 148.031H141.104ZM145.028 157.884H143.894V152.428L145.028 150.868V157.884Z" fill="white"/>
<path d="M65.6817 66.6542C61.2433 76.7829 56.805 86.9042 52.3666 97.0329C45.8993 97.0329 39.432 97.0329 32.9722 97.0329L79.4219 0L125.879 97.0329C119.524 97.0329 113.168 97.0329 106.813 97.0329C102.263 86.9937 97.7124 76.9546 93.1622 66.9154L79.4219 35.0961L65.6817 66.6542Z" fill="white"/>
<path d="M50.4717 87.9126C56.6406 85.5166 66.957 82.3817 80.0184 82.4788C92.4607 82.5758 102.315 85.554 108.364 87.9126" stroke="#E6E6E5" stroke-width="5.80529" stroke-miterlimit="10"/>
<path d="M80.8093 52.9961H77.0796V81.3596H80.8093V52.9961Z" fill="#E6E6E5"/>
</g>
<defs>
<clipPath id="clip0_903_43374">
<rect width="162.548" height="161" fill="white" transform="translate(0.807617)"/>
</clipPath>
</defs>
</svg>
