<svg width="37" height="32" viewBox="0 0 37 32" fill="none" xmlns="http://www.w3.org/2000/svg">
<g clip-path="url(#clip0_931_34149)">
<path d="M3.75001 11.8619C3.90612 11.4637 3.99713 11.0358 4.14059 10.6307C4.43385 9.8053 4.83961 9.00264 5.27254 8.24296C5.32184 8.15574 5.37176 8.06915 5.42296 7.9832C5.47415 7.89724 5.52598 7.81129 5.57843 7.7266C5.63089 7.64128 5.68461 7.55722 5.73897 7.47316C5.79332 7.3891 5.84831 7.30567 5.90455 7.22288C5.9608 7.14009 6.01769 7.05729 6.0752 6.97576C6.13271 6.89423 6.19149 6.8127 6.25027 6.7318C6.30968 6.6509 6.36972 6.57127 6.43039 6.49164C6.49107 6.412 6.553 6.333 6.61494 6.25526C6.67751 6.17689 6.74071 6.09915 6.80455 6.02205C6.86838 5.94494 6.93285 5.86847 6.99858 5.79262C7.06367 5.71678 7.13004 5.64157 7.19703 5.56763C7.26402 5.49305 7.33165 5.41974 7.39991 5.34642C7.46817 5.27311 7.53706 5.20106 7.60721 5.12901C7.67673 5.05696 7.74752 4.98617 7.81893 4.91602C7.89035 4.84586 7.96177 4.77571 8.03445 4.70682C8.10714 4.63793 8.18045 4.56967 8.2544 4.50205C8.32834 4.43442 8.40292 4.36806 8.47813 4.3017C8.55334 4.23597 8.62918 4.17024 8.70566 4.10577C8.78213 4.04131 8.85924 3.97747 8.93697 3.91427C9.01471 3.85107 9.09308 3.78913 9.17208 3.72782C9.25109 3.66652 9.33072 3.60585 9.41099 3.5458C9.49125 3.48576 9.57215 3.42698 9.65305 3.36884C9.73458 3.31069 9.81611 3.25318 9.8989 3.1963C9.9817 3.13942 10.0645 3.0838 10.1479 3.02881C10.2313 2.97383 10.3154 2.91947 10.4001 2.86639C10.4848 2.8133 10.5701 2.76021 10.6554 2.70901C10.7414 2.65719 10.8273 2.60663 10.9139 2.5567C11.0005 2.50677 11.0877 2.45747 11.1756 2.40944C11.2634 2.3614 11.3513 2.314 11.4398 2.26723C11.5282 2.22046 11.6174 2.17496 11.7071 2.13009C11.7969 2.08521 11.8866 2.0416 11.977 1.99863C12.0674 1.95565 12.1584 1.9133 12.2494 1.87222C12.9395 1.55558 13.6544 1.26675 14.3881 1.06766C18.2971 0.00777131 22.5709 0.414158 26.1026 2.43788C29.9004 4.61391 32.4651 7.93074 33.6084 12.1539C34.6228 12.7044 35.4394 13.5159 35.9045 14.5827C36.4436 15.8183 36.3988 17.38 35.8982 18.6213C35.3401 20.0042 34.2512 21.1924 32.8708 21.7795C32.4663 22.6985 32.0442 23.5877 31.4349 24.3929C31.1208 24.8081 30.7542 25.1804 30.442 25.5963C23.6345 32.5001 14 32.5001 7.02133 25.7751C6.27871 24.9301 5.60435 24.0257 5.05702 23.0397C4.80548 22.5866 4.61334 22.0955 4.3441 21.6537L4.32072 21.6158C4.20822 21.569 4.09699 21.5185 3.98765 21.4641C3.87831 21.4098 3.77086 21.3516 3.66595 21.2903C3.5604 21.229 3.45738 21.1639 3.35626 21.095C3.25514 21.0261 3.15654 20.9547 3.06048 20.8795C2.96441 20.8043 2.87087 20.7259 2.77986 20.6444C2.68885 20.5629 2.601 20.4782 2.51631 20.391C2.43099 20.3037 2.34883 20.2134 2.26982 20.1205C2.19082 20.0275 2.11498 19.9321 2.0423 19.8342C1.9911 19.7653 1.94181 19.6951 1.89441 19.6237C1.847 19.5523 1.80087 19.4796 1.75663 19.4063C1.71238 19.333 1.67004 19.2578 1.62959 19.1825C1.58914 19.1067 1.55059 19.0302 1.5133 18.9531C1.47664 18.8754 1.44125 18.797 1.40838 18.718C1.37552 18.639 1.34455 18.5587 1.31485 18.4785C1.28577 18.3976 1.2586 18.3167 1.23332 18.2345C1.20803 18.1524 1.18465 18.0702 1.16379 17.9868C1.1423 17.9033 1.12334 17.8199 1.10628 17.7359C1.08922 17.6518 1.07405 17.5671 1.06077 17.4824C1.0475 17.3977 1.03676 17.3124 1.02728 17.2271C1.01843 17.1418 1.01148 17.0564 1.00642 16.9705C1.00136 16.8845 0.998837 16.7992 0.998205 16.7133C0.997573 16.6273 0.998837 16.542 1.002 16.456C1.00516 16.3701 1.01085 16.2847 1.01843 16.1994C1.02601 16.1141 1.03549 16.0288 1.0475 15.9435C1.30726 14.1751 2.35894 12.894 3.75001 11.8619Z" fill="#371A46"/>
<path d="M33.9276 13.6836C33.9567 13.6962 33.9642 13.6988 33.9946 13.7184C34.5154 14.0628 34.7309 14.71 34.8238 15.2959C34.9875 16.3286 34.918 17.592 34.4774 18.5533C34.3346 18.8655 34.1444 19.1417 33.9434 19.4191C33.8239 19.5721 33.6982 19.6998 33.5547 19.8293C33.9339 18.4939 34.3738 16.9195 34.2341 15.5329C34.1734 14.9299 33.932 14.3219 33.9276 13.7215C33.9269 13.7089 33.9269 13.6962 33.9276 13.6836Z" fill="#9D8EA5"/>
<path d="M32.7387 15.335C32.7993 15.8848 32.75 16.4644 32.7064 17.0149C32.6938 17.183 32.678 17.3505 32.659 17.5179C32.6401 17.6854 32.6179 17.8523 32.5927 18.0191C32.5674 18.186 32.5389 18.3516 32.5073 18.5172C32.4757 18.6828 32.441 18.8477 32.4037 19.012C32.3658 19.1764 32.3253 19.3394 32.2817 19.5025C32.2381 19.6649 32.1907 19.8267 32.1414 19.9879C32.0915 20.149 32.0384 20.3089 31.9828 20.4676C31.9272 20.6262 31.8677 20.7842 31.8064 20.941C31.7445 21.0977 31.68 21.2532 31.6124 21.4074C31.5448 21.5616 31.474 21.7145 31.4007 21.8662C31.3274 22.0179 31.2509 22.1683 31.1719 22.3169C31.0929 22.4654 31.0107 22.6126 30.9267 22.7586C30.8426 22.9046 30.7548 23.0481 30.665 23.1909C30.5753 23.3331 30.4824 23.4741 30.3869 23.6131C30.2915 23.7522 30.1942 23.8893 30.0937 24.0246C29.9932 24.1598 29.8902 24.2932 29.7852 24.4246C27.4322 27.3566 23.874 29.1818 20.1577 29.5813C20.0414 29.5945 19.9245 29.6059 19.8082 29.616C19.6913 29.6261 19.575 29.635 19.4581 29.6419C19.3412 29.6489 19.2242 29.6546 19.1073 29.659C18.9904 29.6634 18.8735 29.666 18.7559 29.6672C18.639 29.6685 18.5214 29.6685 18.4045 29.6672C18.2876 29.666 18.1707 29.6628 18.0531 29.6584C17.9362 29.6539 17.8193 29.6483 17.7023 29.6407C17.5854 29.6331 17.4685 29.6242 17.3522 29.6141C17.2353 29.604 17.119 29.592 17.0027 29.5787C16.8864 29.5655 16.7701 29.5509 16.6538 29.5351C16.5375 29.5193 16.4219 29.5016 16.3062 29.4827C16.1906 29.4637 16.0755 29.4435 15.9605 29.4214C15.8455 29.3992 15.7304 29.3765 15.616 29.3518C15.5017 29.3272 15.3873 29.3013 15.2735 29.2735C15.1597 29.2457 15.046 29.2172 14.9328 29.1869C14.8197 29.1565 14.7072 29.1249 14.5947 29.0914C14.4822 29.0586 14.3703 29.0238 14.2591 28.9878C14.1479 28.9518 14.0366 28.9145 13.926 28.8759C13.8154 28.8374 13.7055 28.7969 13.5961 28.7558C13.4868 28.7141 13.3774 28.6718 13.2694 28.6275C13.1613 28.5833 13.0532 28.5378 12.9458 28.491C12.8383 28.4443 12.7315 28.3962 12.6253 28.3469C12.5192 28.2976 12.4136 28.2464 12.3087 28.1946C12.2038 28.1428 12.0995 28.0891 11.9959 28.0347C11.8922 27.9797 11.7892 27.9241 11.6874 27.8666C11.585 27.8091 11.4839 27.7509 11.3828 27.6909C11.2823 27.6309 11.1818 27.5702 11.0826 27.5076C10.9834 27.4457 10.8848 27.3818 10.7874 27.3174C10.6901 27.2529 10.5928 27.1865 10.4967 27.1196C10.4006 27.0526 10.3052 26.9843 10.211 26.9148C10.1169 26.8453 10.0233 26.7745 9.93106 26.7031C9.83878 26.631 9.74714 26.5583 9.65613 26.4844C8.04701 25.1824 6.85376 23.6845 5.90005 21.8555C5.60047 21.281 5.31986 20.6957 5.11003 20.0814C4.77885 19.1094 4.5785 18.0729 4.47106 17.0528C4.44451 16.8006 4.41797 16.544 4.41797 16.2912C4.7049 16.5307 5.01523 16.75 5.29521 16.9965C5.37295 17.5641 5.53854 18.1399 5.7136 18.6847C6.32476 20.5826 7.16345 22.0356 8.50902 23.5082C8.94637 23.9866 9.39194 24.4385 9.90957 24.8317C12.5779 26.8566 15.2425 27.8976 18.62 27.9026C19.3393 27.9039 20.0427 27.8868 20.7556 27.7882C24.1616 27.3186 27.6686 25.3765 29.7499 22.6164C30.6486 21.4244 31.1852 19.9708 31.5069 18.5241C31.596 18.1241 31.6269 17.2468 31.8279 16.9479C32.1521 16.6508 32.3582 16.2944 32.6281 15.9575L32.7102 15.9916C32.7684 15.8172 32.7273 15.5265 32.7387 15.335Z" fill="#D3E2EE"/>
<path d="M4.53125 14.3397C5.0337 10.4787 6.94619 7.0506 10.0412 4.67042C10.1328 4.6009 10.2257 4.53264 10.3186 4.46502C10.4122 4.39739 10.5063 4.33166 10.6011 4.26657C10.6959 4.20147 10.792 4.13763 10.8887 4.07506C10.9854 4.01249 11.0827 3.95056 11.1807 3.89052C11.2787 3.83047 11.3773 3.77106 11.4771 3.71292C11.577 3.65477 11.6768 3.59789 11.778 3.54291C11.8791 3.48729 11.9802 3.43293 12.0826 3.37985C12.185 3.32676 12.2874 3.27493 12.391 3.22437C12.4947 3.17381 12.5983 3.12451 12.7032 3.07648C12.8081 3.02844 12.9131 2.98167 13.0186 2.93617C13.1242 2.89066 13.231 2.84642 13.3378 2.80345C13.4446 2.76047 13.552 2.71876 13.6595 2.67831C13.7675 2.63786 13.8756 2.59867 13.9843 2.56138C14.093 2.52346 14.2024 2.48744 14.3117 2.45204C14.4217 2.41665 14.5317 2.38315 14.6423 2.35092C14.7529 2.31869 14.8635 2.28709 14.9747 2.25738C15.0859 2.22768 15.1978 2.19924 15.3097 2.17206C15.4215 2.14488 15.534 2.1196 15.6465 2.09495C15.759 2.07094 15.8722 2.04755 15.9847 2.02606C16.0978 2.00458 16.2109 1.98435 16.3247 1.96539C16.4385 1.94643 16.5522 1.92873 16.666 1.91293C16.7797 1.89713 16.8941 1.88196 17.0085 1.86869C17.1229 1.85542 17.2373 1.84341 17.3517 1.83267C17.4661 1.82192 17.5811 1.81307 17.6962 1.80486C17.8112 1.79727 17.9262 1.79095 18.0412 1.7859C18.1563 1.78084 18.2713 1.77705 18.3863 1.77515C18.5014 1.77326 18.6164 1.77199 18.732 1.77263C18.8471 1.77326 18.9621 1.77515 19.0771 1.77831C19.1922 1.78147 19.3072 1.78653 19.4222 1.79285C19.5372 1.79917 19.6523 1.80675 19.7667 1.8156C19.8817 1.82445 19.9961 1.83456 20.1105 1.84657C20.2249 1.85858 20.3393 1.87122 20.4537 1.88576C20.5681 1.90092 20.6818 1.91799 20.7956 1.93569C20.9093 1.95401 21.0225 1.97297 21.1362 1.99383C21.2494 2.01469 21.3625 2.03681 21.475 2.06083C21.5875 2.08421 21.7 2.10949 21.8119 2.13604C21.9237 2.16258 22.0356 2.19039 22.1468 2.21946C22.2581 2.24853 22.3693 2.27887 22.4799 2.31047C22.5905 2.34207 22.7005 2.37557 22.8105 2.4097C22.9204 2.44446 23.0298 2.47985 23.1385 2.51714C23.2472 2.55443 23.3559 2.59298 23.464 2.6328C23.572 2.67262 23.6795 2.7137 23.7863 2.75604C23.8931 2.79839 23.9999 2.842 24.1055 2.8875C24.2116 2.93238 24.3165 2.97915 24.4215 3.02655C24.5264 3.07395 24.6307 3.12325 24.7343 3.17318C24.838 3.22311 24.941 3.27493 25.0434 3.32739C25.1458 3.37985 25.2475 3.4342 25.3486 3.48918C25.4498 3.54417 25.5502 3.60042 25.6495 3.65856C25.7493 3.71608 25.8479 3.77486 25.9465 3.8349C26.0445 3.89494 26.1424 3.95624 26.2391 4.01818C26.3358 4.08075 26.4319 4.14395 26.5273 4.20905C26.6228 4.27352 26.7169 4.33988 26.8105 4.40687C26.904 4.47387 26.9969 4.54212 27.0886 4.61165C27.1802 4.68117 27.2712 4.75132 27.3616 4.82274C27.452 4.89416 27.5411 4.96684 27.6296 5.04079C27.7181 5.11473 27.8053 5.18931 27.8919 5.26515C27.9785 5.34099 28.0644 5.4181 28.1491 5.49584C28.2338 5.57358 28.3179 5.65258 28.4006 5.73285C28.4834 5.81311 28.565 5.89401 28.6459 5.97554C28.7268 6.0577 28.8064 6.1405 28.8854 6.22456C28.9644 6.30861 29.0421 6.3933 29.1186 6.47926C29.1951 6.56521 29.2709 6.6518 29.3455 6.73965C29.4201 6.8275 29.4934 6.91598 29.5661 7.0051C29.6388 7.09484 29.7102 7.18459 29.7803 7.27623C31.2845 9.26203 32.3052 11.5322 32.6282 14.0129C32.6845 14.4465 32.7432 14.8996 32.7401 15.3363C32.7287 15.5278 32.7704 15.8186 32.7097 15.9924L32.6276 15.9583C32.3577 16.2951 32.1517 16.6516 31.8274 16.9486L31.7604 16.948C31.6954 17.0302 31.6954 17.075 31.6777 17.1768C31.6789 17.1351 31.6783 17.094 31.677 17.0523C31.6619 16.5599 31.5601 16.0265 31.5026 15.5342C31.2972 13.7923 31.1133 12.6876 30.2461 11.1176C29.8239 10.3529 29.3594 9.71898 28.7236 9.11414C27.1012 7.57138 25.154 6.64232 23.0032 6.0893C22.5785 5.97996 22.1494 5.85356 21.7158 5.78593C20.2065 5.55146 18.6745 5.53629 17.1501 5.58179C14.3269 5.66712 11.103 6.79337 8.92503 8.60347C7.99597 9.37579 7.211 10.3207 6.55687 11.3325C6.14669 11.9677 5.18728 13.8928 4.75625 14.284C4.68104 14.3529 4.62984 14.3434 4.53125 14.3397Z" fill="#FDFDFE"/>
<path d="M4.52958 14.3398C4.62817 14.3436 4.67937 14.3531 4.75584 14.2835C5.18688 13.8923 6.14628 11.9672 6.55646 11.332C7.2106 10.3202 7.99556 9.3753 8.92463 8.60297C11.1026 6.79288 14.3265 5.66662 17.1497 5.5813C18.6735 5.53516 20.2061 5.55096 21.7154 5.78544C22.149 5.85243 22.5787 5.97947 23.0028 6.08881C25.1536 6.64182 27.1008 7.57089 28.7232 9.11364C29.359 9.71848 29.8235 10.3524 30.2457 11.1171C31.1129 12.6871 31.2968 13.7918 31.5022 15.5337C31.5603 16.0254 31.6614 16.5588 31.6766 17.0518C31.6779 17.0935 31.6779 17.1346 31.6772 17.1763C31.6949 17.0745 31.6943 17.0297 31.76 16.9475L31.827 16.9481C31.6261 17.2471 31.5951 18.1237 31.506 18.5244C31.1843 19.9704 30.6477 21.4247 29.749 22.6167C27.6677 25.3767 24.1607 27.3195 20.7547 27.7885C20.0418 27.8865 19.3377 27.9035 18.6191 27.9029C15.2416 27.8978 12.5764 26.8569 9.90868 24.8319C9.39106 24.4388 8.94548 23.9869 8.50813 23.5085C7.16256 22.0359 6.32388 20.5829 5.71272 18.6849C5.53765 18.1401 5.37143 17.5637 5.29432 16.9968C5.01434 16.7503 4.70402 16.531 4.41708 16.2915C4.37537 15.6575 4.44173 14.9668 4.52958 14.3398Z" fill="url(#paint0_linear_931_34149)"/>
<path d="M6.09554 17.6148C6.19098 17.4018 6.11956 16.7091 6.13663 16.4335C6.15748 16.0929 6.19288 15.7478 6.2447 15.4103C6.63655 12.8373 8.14518 10.6247 10.2289 9.10592C13.334 6.84203 17.2671 6.09246 21.0339 6.69035C21.1812 6.7131 21.3278 6.73838 21.4744 6.76619C21.621 6.794 21.7664 6.82433 21.9118 6.85657C22.0571 6.88943 22.2019 6.92419 22.346 6.96148C22.4901 6.99877 22.6335 7.03859 22.777 7.08093C22.9198 7.12328 23.062 7.16752 23.2036 7.21429C23.3452 7.26106 23.4855 7.31036 23.6252 7.36155C23.7649 7.41274 23.9039 7.46646 24.0423 7.52271C24.1801 7.57896 24.3172 7.63711 24.4537 7.69778C24.5903 7.75846 24.7249 7.82103 24.8589 7.88612C24.9929 7.95122 25.1262 8.01822 25.2577 8.08774C25.3898 8.15726 25.52 8.22868 25.6495 8.30262C25.7791 8.37657 25.9074 8.45241 26.0344 8.53015C26.1615 8.60789 26.2872 8.68815 26.4111 8.77032C26.5356 8.85248 26.6582 8.93654 26.7802 9.02249C26.9016 9.10845 27.0216 9.19693 27.1405 9.28667C27.2593 9.37705 27.3762 9.4687 27.4919 9.56287C28.2478 10.1677 28.9373 10.832 29.5067 11.6194C30.5527 13.068 31.0748 14.7776 31.1007 16.5568C31.1051 16.8778 31.1203 17.2235 31.0684 17.5408C30.8826 19.9229 29.3468 22.6475 27.5456 24.1896C27.4603 24.2623 27.3737 24.3337 27.2865 24.4039C27.1992 24.474 27.1114 24.5436 27.0223 24.6118C26.9332 24.6801 26.8434 24.7471 26.753 24.8128C26.6627 24.8785 26.571 24.9436 26.4787 25.0075C26.3865 25.0713 26.2936 25.1339 26.2 25.1952C26.1065 25.2565 26.0117 25.3172 25.9169 25.3759C25.8214 25.4353 25.726 25.4929 25.6293 25.5497C25.5326 25.6066 25.4353 25.6622 25.3373 25.7166C25.2393 25.7709 25.1408 25.824 25.0415 25.8759C24.9423 25.9277 24.8424 25.9789 24.742 26.0282C24.6415 26.0775 24.5403 26.1261 24.4386 26.1729C24.3368 26.2197 24.2344 26.2658 24.1321 26.3101C24.029 26.3549 23.926 26.3979 23.8224 26.4396C23.7187 26.4813 23.6144 26.5224 23.5095 26.5616C23.4046 26.6008 23.2997 26.6393 23.1935 26.676C23.088 26.7127 22.9818 26.7487 22.875 26.7828C22.7682 26.8169 22.6614 26.8498 22.5539 26.8814C22.4465 26.913 22.3384 26.9433 22.2303 26.9724C22.1222 27.0015 22.0135 27.0293 21.9048 27.0552C21.7961 27.0818 21.6868 27.1064 21.5774 27.1304C21.4681 27.1538 21.3581 27.1766 21.2482 27.1974C21.1382 27.2183 21.0276 27.2379 20.9176 27.2562C20.807 27.2745 20.6964 27.2916 20.5852 27.3068C20.4746 27.3226 20.3633 27.3365 20.2521 27.3491C20.1409 27.3617 20.0296 27.3731 19.9178 27.3832C19.8059 27.3933 19.6947 27.4022 19.5828 27.4091C19.4709 27.4167 19.3591 27.4224 19.2472 27.4268C19.1353 27.4313 19.0235 27.4344 18.9116 27.4363C18.7997 27.4382 18.6879 27.4388 18.5754 27.4376C18.4635 27.4369 18.3516 27.4344 18.2391 27.4306C18.1273 27.4268 18.0154 27.4218 17.9035 27.4155C17.7917 27.4091 17.6798 27.4016 17.5686 27.3921C14.1816 27.1247 10.823 25.5441 8.61287 22.9357C7.52896 21.6559 6.67447 20.2022 6.23206 18.5767C6.14863 18.2695 6.05889 17.944 6.02539 17.6274L6.05699 17.604L6.09554 17.6148Z" fill="#371A46"/>
<path d="M9.77937 16.4816C9.37298 15.72 9.38878 14.9135 9.64032 14.0995C10.0505 12.7697 11.0782 11.646 12.303 11.0089C13.2776 10.5021 14.3059 10.2847 15.4005 10.4041C15.6281 10.4288 15.8575 10.4534 16.0762 10.5242C16.3985 10.6285 16.8055 10.7953 16.961 11.1183C17.033 11.2681 17.0318 11.4318 16.9749 11.586C16.7031 12.3185 15.3222 12.8639 14.6965 13.324C14.4911 13.4751 14.2755 13.6419 14.103 13.8309C13.2586 14.7536 12.9319 16.0392 11.7778 16.6775C11.4662 16.8001 11.1616 16.9486 10.8184 16.9493C10.4291 16.9486 10.0467 16.7584 9.77937 16.4816Z" fill="#FEFEFE"/>
</g>
<defs>
<linearGradient id="paint0_linear_931_34149" x1="16.6559" y1="5.58254" x2="19.6131" y2="27.8532" gradientUnits="userSpaceOnUse">
<stop stop-color="#DEF1F9"/>
<stop offset="1" stop-color="#F8F7FA"/>
</linearGradient>
<clipPath id="clip0_931_34149">
<rect width="37" height="31" fill="white" transform="translate(0 0.5)"/>
</clipPath>
</defs>
</svg>
