<svg width="26" height="25" viewBox="0 0 26 25" fill="none" xmlns="http://www.w3.org/2000/svg">
<path d="M11.7738 12.4679L6.11692 12.4679M24.2726 11.8258C24.3929 11.8844 24.4944 11.9757 24.5653 12.0892C24.6362 12.2027 24.6738 12.3339 24.6737 12.4677C24.6736 12.6015 24.6358 12.7327 24.5647 12.8461C24.4936 12.9595 24.3921 13.0506 24.2717 13.109L2.72469 23.4855C2.59586 23.5475 2.45136 23.5694 2.30996 23.5483C2.16855 23.5271 2.03676 23.464 1.93168 23.367C1.8266 23.2701 1.75307 23.1438 1.72065 23.0045C1.68822 22.8653 1.69839 22.7195 1.74983 22.5861L5.54275 12.7234C5.60523 12.5588 5.60523 12.377 5.54275 12.2124L1.75077 2.34871C1.69978 2.21546 1.68992 2.06999 1.72246 1.93108C1.755 1.79217 1.82844 1.66621 1.9333 1.56947C2.03816 1.47273 2.16962 1.40966 2.31069 1.3884C2.45177 1.36714 2.59598 1.38867 2.72469 1.45021L24.2726 11.8258Z" stroke="#030916" stroke-width="1.8" stroke-linecap="round" stroke-linejoin="round"/>
</svg>
