<svg width="20" height="20" viewBox="0 0 20 20" fill="none" xmlns="http://www.w3.org/2000/svg">
<path d="M17.7077 9.99828H7.41185M3.77768 9.99828H2.29102M3.77768 9.99828C3.77768 9.51647 3.96908 9.05439 4.30977 8.7137C4.65046 8.37301 5.11254 8.18161 5.59435 8.18161C6.07616 8.18161 6.53824 8.37301 6.87893 8.7137C7.21962 9.05439 7.41102 9.51647 7.41102 9.99828C7.41102 10.4801 7.21962 10.9422 6.87893 11.2829C6.53824 11.6235 6.07616 11.8149 5.59435 11.8149C5.11254 11.8149 4.65046 11.6235 4.30977 11.2829C3.96908 10.9422 3.77768 10.4801 3.77768 9.99828ZM17.7077 15.5041H12.9177M12.9177 15.5041C12.9177 15.986 12.7258 16.4486 12.3851 16.7894C12.0443 17.1302 11.5821 17.3216 11.1002 17.3216C10.6184 17.3216 10.1563 17.1294 9.81561 16.7887C9.47491 16.448 9.28352 15.9859 9.28352 15.5041M12.9177 15.5041C12.9177 15.0222 12.7258 14.5604 12.3851 14.2197C12.0443 13.8789 11.5821 13.6874 11.1002 13.6874C10.6184 13.6874 10.1563 13.8788 9.81561 14.2195C9.47491 14.5602 9.28352 15.0223 9.28352 15.5041M9.28352 15.5041H2.29102M17.7077 4.49245H15.1202M11.486 4.49245H2.29102M11.486 4.49245C11.486 4.01064 11.6774 3.54856 12.0181 3.20787C12.3588 2.86718 12.8209 2.67578 13.3027 2.67578C13.5413 2.67578 13.7775 2.72277 13.9979 2.81407C14.2183 2.90536 14.4186 3.03918 14.5873 3.20787C14.756 3.37656 14.8898 3.57683 14.9811 3.79724C15.0724 4.01765 15.1193 4.25388 15.1193 4.49245C15.1193 4.73102 15.0724 4.96725 14.9811 5.18766C14.8898 5.40806 14.756 5.60833 14.5873 5.77702C14.4186 5.94572 14.2183 6.07953 13.9979 6.17083C13.7775 6.26213 13.5413 6.30911 13.3027 6.30911C12.8209 6.30911 12.3588 6.11772 12.0181 5.77702C11.6774 5.43633 11.486 4.97426 11.486 4.49245Z" stroke="white" stroke-width="1.2" stroke-miterlimit="10" stroke-linecap="round"/>
</svg>
